# AST/ASF file generated using VICON BodyLanguage
# -----------------------------------------------
:version 1.10
:name VICON
:units
  mass 1.0
  length 0.45
  angle deg
:documentation
   .ast/.asf automatically generated from VICON data using
   VICON BodyBuilder and BodyLanguage model FoxedUp or BRILLIANT.MOD
:root
   order TX TY TZ RX RY RZ
   axis XYZ
   position 0 0 0  
   orientation 0 0 0 
:bonedata
  begin
     id 1 
     name lhipjoint
     direction 0.597014 -0.743513 0.301268 
     length 2.48253 
     axis 0 0 0  XYZ
  end
  begin
     id 2 
     name lfemur
     direction 0.34202 -0.939693 0  
     length 7.51389  
     axis 0 0 20  XYZ
    dof rx ry rz
    limits (-160.0 20.0)
           (-70.0 70.0)
           (-60.0 70.0)
  end
  begin
     id 3 
     name ltibia
     direction 0.34202 -0.939693 0   
     length 7.54147   
     axis 0 0 20   XYZ
    dof rx
    limits (-10.0 170.0)
  end
  begin
     id 4 
     name lfoot
     direction 0.10378 -0.285133 0.952853   
     length 2.2132   
     axis -90 7.62852e-016 20   XYZ
    dof rx rz
    limits (-45.0 90.0)
           (-70.0 20.0)
  end
  begin
     id 5 
     name ltoes
     direction 1.5354e-011 -4.2171e-011 1   
     length 1.10362   
     axis -90 7.62852e-016 20   XYZ
    dof rx
    limits (-90.0 20.0)
  end
  begin
     id 6 
     name rhipjoint
     direction -0.591912 -0.747009 0.302685   
     length 2.47092  
     axis 0 0 0  XYZ 
  end
  begin
     id 7 
     name rfemur
     direction -0.34202 -0.939693 0   
     length 7.69991   
     axis 0 0 -20   XYZ
    dof rx ry rz
    limits (-160.0 20.0)
           (-70.0 70.0)
           (-70.0 60.0)
  end
  begin
     id 8 
     name rtibia
     direction -0.34202 -0.939693 0   
     length 7.40774   
     axis 0 0 -20   XYZ
    dof rx
    limits (-10.0 170.0)
 end
 begin
     id 9 
     name rfoot
     direction -0.0916245 -0.251736 0.963449   
     length 2.08235  
     axis -90 -7.62852e-016 -20   XYZ
    dof rx rz
    limits (-45.0 90.0)
           (-20.0 70.0)
  end
  begin
     id 10 
     name rtoes
     direction -1.53527e-011 -4.21878e-011 1   
     length 1.04369   
     axis -90 -7.62852e-016 -20   XYZ
    dof rx
    limits (-90.0 20.0)
  end
  begin
     id 11 
     name lowerback
     direction -0.0122523 0.991496 -0.12956   
     length 2.10814   
     axis 0 0 0   XYZ
    dof rx ry rz
    limits (-20.0 45.0)
           (-30.0 30.0)
           (-30.0 30.0)
  end
  begin
     id 12 
     name upperback
     direction 0.012378 0.999784 -0.0167122   
     length 2.11728   
     axis 0 0 0   XYZ
    dof rx ry rz
    limits (-20.0 45.0)
           (-30.0 30.0)
           (-30.0 30.0)
  end
  begin
     id 13 
     name thorax
     direction 0.0187236 0.998893 0.0431542   
     length 2.15267   
     axis 0 0 0   XYZ
    dof rx ry rz
    limits (-20.0 45.0)
           (-30.0 30.0)
           (-30.0 30.0)
  end
  begin
     id 14 
     name lowerneck
     direction 0.0165467 0.987304 0.157979   
     length 1.72129   
     axis 0 0 0   XYZ
    dof rx ry rz
    limits (-20.0 45.0)
           (-30.0 30.0)
           (-30.0 30.0)
  end
  begin
     id 15 
     name upperneck
     direction -0.0560236 0.986819 -0.151818   
     length 1.75382   
     axis 0 0 0   XYZ
    dof rx ry rz
    limits (-20.0 45.0)
           (-30.0 30.0)
           (-30.0 30.0)
  end
  begin
     id 16
     name head
     direction -0.0173602 0.99745 -0.0692312  
     length 1.76328  
     axis 0 0 0   XYZ
    dof rx ry rz
    limits (-20.0 45.0)
           (-30.0 30.0)
           (-30.0 30.0)
  end
  begin
     id 17 
     name lclavicle
     direction 0.957734 0.271724 -0.094399  
     length 3.5782  
     axis 0 0 0   XYZ
    dof ry rz
    limits (-20.0 10.0)
           (0.0 20.0)
  end
  begin
     id 18 
     name lhumerus
     direction 1 -4.48963e-011 1.21581e-027   
     length 5.25525   
     axis 180 -30 -90   XYZ
    dof rx ry rz
    limits (-60.0 90.0)
           (-90.0 90.0)
           (-90.0 90.0)
  end
  begin
     id 19
     name lradius
     direction 1 -4.48975e-011 3.71216e-028   
     length 3.35106   
     axis 180 -30 -90   XYZ
    dof rx
    limits (-10.0 170.0)
  end
  begin
     id 20
     name lwrist
     direction 1 -4.48957e-011 4.76535e-027   
     length 1.67553   
     axis -3.27501e-015 90 90   XYZ
    dof ry
    limits (-180.0 0.0)
 end
  begin
     id 21 
     name lhand
     direction 1 -4.49008e-011 9.52727e-027   
     length 0.574153   
     axis -6.08097e-015 90 90   XYZ
    dof rx rz
    limits (-90.0 90.0)
           (-45.0 45.0)
  end
  begin
     id 22 
     name lfingers
     direction 1 -4.48996e-011 1.90562e-026   
     length 0.462897   
     axis -1.21618e-014 90 90   XYZ
    dof rx
    limits (0.0 90.0)
  end
  begin
     id 23
     name lthumb
     direction 0.707107 -6.34908e-011 0.707107   
     length 0.66463   
     axis -90 45 -1.62303e-014   XYZ
    dof rx rz
    limits (-45.0 45.0)
           (-45.0 45.0)
  end
  begin
     id 24 
     name rclavicle
     direction -0.950439 0.29623 -0.0944132   
     length 3.45861  
     axis 0 0 0   XYZ 
    dof ry rz
    limits (-10.0 20.0)
           (-20.0 0.0)
  end
  begin
     id 25 
     name rhumerus
     direction -1 -4.48986e-011 1.25473e-027  
     length 5.33104   
     axis 180 30 90   XYZ
    dof rx ry rz
    limits (-90.0 60.0)
           (-90.0 90.0)
           (-90.0 90.0)
  end
  begin
     id 26 
     name rradius
     direction -1 -4.4894e-011 1.66273e-027   
     length 3.39883   
     axis 180 30 90   XYZ
    dof rx
    limits (-10.0 170.0)
  end
  begin
     id 27 
     name rwrist
     direction -1 -4.48946e-011 4.76572e-027   
     length 1.69941   
     axis -3.27501e-015 -90 -90   XYZ
    dof ry
    limits (-180.0 0.0)
  end
  begin
     id 28
     name rhand
     direction -1 -4.49028e-011 9.52595e-027   
     length 0.913886   
     axis -6.08097e-015 -90 -90   XYZ
    dof rx rz
    limits (-90.0 90.0)
           (-45.0 45.0)
  end
  begin
     id 29
     name rfingers
     direction -1 -4.48945e-011 1.9063e-026   
     length 0.736798   
     axis -1.21618e-014 -90 -90   XYZ
    dof rx
    limits (0.0 90.0)
  end
  begin
     id 30
     name rthumb
     direction -0.707107 -6.34966e-011 0.707107   
     length 1.0579   
     axis -90 -45 1.62303e-014   XYZ
    dof rx rz
    limits (-45.0 45.0)
           (-45.0 45.0)
  end
:hierarchy
  begin
    root lhipjoint rhipjoint lowerback
    lhipjoint lfemur
    lfemur ltibia
    ltibia lfoot
    lfoot ltoes
    rhipjoint rfemur
    rfemur rtibia
    rtibia rfoot
    rfoot rtoes
    lowerback upperback
    upperback thorax
    thorax lowerneck lclavicle rclavicle
    lowerneck upperneck
    upperneck head
    lclavicle lhumerus
    lhumerus lradius
    lradius lwrist
    lwrist lhand lthumb
    lhand lfingers
    rclavicle rhumerus
    rhumerus rradius
    rradius rwrist
    rwrist rhand rthumb
    rhand rfingers
  end

#!OML:ASF F:\VICON\USERDATA\INSTALL\rory3\rory3.ASF
:FULLY-SPECIFIED
:DEGREES
2620
root -2.92698 17.22 39.8178 174.604 -14.2393 -177.417
lowerback 13.1112 -0.278319 -1.00887
upperback 1.68829 -0.625079 1.13292
thorax -5.55169 -0.351466 1.87939
lowerneck -19.0013 -0.016418 4.76759
upperneck 20.0529 -1.21689 -1.99852
head 9.43035 -0.528597 -1.66289
rclavicle -1.2921e-014 -3.77691e-015
rhumerus -39.9417 0.389138 -82.3669
rradius 69.7624
rwrist 13.2612
rhand -8.74501 5.94376
rfingers 7.12502
rthumb 17.1919 -23.3157
lclavicle -1.2921e-014 -3.77691e-015
lhumerus -34.2479 -5.28801 90.0589
lradius 98.1019
lwrist -2.03387
lhand -21.8663 18.3263
lfingers 7.12502
lthumb 4.53785 48.2577
rfemur -6.39477 -1.36155 21.6784
rtibia 38.3312
rfoot -20.8212 -11.8253
rtoes -2.79559
lfemur -6.84753 -8.27359 -9.95009
ltibia 45.5451
lfoot -17.6007 1.38259
ltoes -26.6129
2621
root -2.87312 17.2344 39.8047 174.535 -14.2701 -177.38
lowerback 13.382 -0.319185 -0.668858
upperback 1.50071 -0.621999 1.11934
thorax -5.90361 -0.349537 1.67832
lowerneck -18.4954 0.228333 4.8145
upperneck 20.126 -0.774447 -2.4566
head 9.37685 -0.377101 -1.76928
rclavicle -2.64694e-014 2.98177e-015
rhumerus -40.1738 0.647261 -82.4849
rradius 69.5326
rwrist 13.4141
rhand -8.95426 6.00878
rfingers 7.12502
rthumb 16.9905 -23.2681
lclavicle -2.64694e-014 2.98177e-015
lhumerus -34.3856 -6.07765 90.8152
lradius 97.7685
lwrist -2.73942
lhand -22.1052 18.0286
lfingers 7.12502
lthumb 4.30716 47.9648
rfemur -6.21872 -1.68792 21.8399
rtibia 38.1293
rfoot -20.8997 -11.4957
rtoes -3.29181
lfemur -7.22865 -8.29351 -9.6096
ltibia 46.2036
lfoot -16.9674 0.927183
ltoes -26.3304
2622
root -2.82054 17.2397 39.8062 174.268 -14.4022 -177.335
lowerback 13.7897 -0.327182 -0.351526
upperback 1.72352 -0.607963 1.20142
thorax -5.89607 -0.361442 1.58743
lowerneck -19.1348 0.510075 4.86012
upperneck 20.4006 -0.270104 -3.07175
head 9.60768 -0.205094 -1.93179
rclavicle -3.07433e-014 3.37934e-015
rhumerus -39.5748 0.642872 -82.4679
rradius 69.3258
rwrist 13.8389
rhand -8.90134 6.26257
rfingers 7.12502
rthumb 17.0414 -23.01
lclavicle -3.07433e-014 3.37934e-015
lhumerus -33.5811 -6.87968 91.6949
lradius 97.226
lwrist -3.1092
lhand -22.1554 18.0191
lfingers 7.12502
lthumb 4.25868 47.9562
rfemur -5.90972 -1.98136 22.0161
rtibia 38.0204
rfoot -20.8544 -11.4205
rtoes -3.06417
lfemur -7.58249 -8.13265 -9.23744
ltibia 46.9336
lfoot -16.0448 0.28844
ltoes -27.644
2623
root -2.77777 17.238 39.7943 174.268 -14.5803 -177.555
lowerback 13.6255 -0.372304 -0.242928
upperback 2.02323 -0.675603 1.23276
thorax -5.48704 -0.410271 1.56565
lowerneck -19.7299 0.878917 4.79762
upperneck 20.46 0.398185 -3.67087
head 9.76737 0.0337911 -2.04328
rclavicle 3.06762e-014 1.10885e-015
rhumerus -38.7813 0.920336 -82.5297
rradius 69.1186
rwrist 14.3206
rhand -8.65536 6.42485
rfingers 7.12502
rthumb 17.2782 -22.8271
lclavicle 3.06762e-014 1.10885e-015
lhumerus -32.5879 -7.39006 92.6
lradius 96.4986
lwrist -3.82417
lhand -22.196 17.8996
lfingers 7.12502
lthumb 4.21948 47.8375
rfemur -5.76392 -1.96033 21.9525
rtibia 37.9476
rfoot -20.9462 -11.5122
rtoes -1.92486
lfemur -8.1126 -8.11036 -9.1972
ltibia 47.6826
lfoot -15.1201 -0.204051
ltoes -28.5119
2624
root -2.74535 17.2415 39.8023 174.266 -14.2471 -177.695
lowerback 14.335 -0.230282 0.40143
upperback 1.47521 -0.360594 0.975901
thorax -6.47416 -0.253297 0.885172
lowerneck -18.782 1.10671 4.97038
upperneck 20.7755 0.742109 -4.01036
head 9.7234 0.153759 -2.14792
rclavicle -3.82924e-014 -4.5969e-016
rhumerus -39.4677 1.00933 -82.8472
rradius 69.1212
rwrist 14.3315
rhand -8.53352 6.47228
rfingers 7.12502
rthumb 17.3954 -22.7693
lclavicle -3.82924e-014 -4.5969e-016
lhumerus -33.1572 -8.33381 93.4965
lradius 95.7464
lwrist -4.62581
lhand -22.3618 17.6456
lfingers 7.12502
lthumb 4.05943 47.5867
rfemur -5.80871 -1.75964 21.9317
rtibia 37.9194
rfoot -20.8061 -11.4022
rtoes -1.85479
lfemur -8.54883 -7.8454 -9.11907
ltibia 48.4193
lfoot -14.3393 -0.526662
ltoes -28.5234
2625
root -2.71172 17.2465 39.8019 174.243 -14.1837 -177.823
lowerback 14.4345 -0.174726 0.687577
upperback 1.74474 -0.267121 0.999128
thorax -6.24429 -0.22566 0.729092
lowerneck -19.8292 1.53635 5.05507
upperneck 21.2554 1.41249 -4.52872
head 10.1271 0.404131 -2.26318
rclavicle -2.04935e-014 -1.12313e-014
rhumerus -38.3546 1.31827 -83.0167
rradius 68.7126
rwrist 14.5692
rhand -8.70052 6.82331
rfingers 7.12502
rthumb 17.2347 -22.4324
lclavicle -2.04935e-014 -1.12313e-014
lhumerus -32.1537 -8.85283 94.274
lradius 94.798
lwrist -5.82336
lhand -22.654 17.3074
lfingers 7.12502
lthumb 3.77726 47.2537
rfemur -5.79943 -1.72737 21.9475
rtibia 37.9213
rfoot -20.8073 -11.4631
rtoes -2.42288
lfemur -9.03148 -7.71867 -8.99761
ltibia 49.1169
lfoot -13.4594 -0.975491
ltoes -27.8661
2626
root -2.70224 17.2566 39.7721 174.282 -13.3563 -178.061
lowerback 14.1917 0.0799619 1.06929
upperback 1.69924 0.128927 0.924707
thorax -6.15942 -0.0392168 0.356249
lowerneck -19.5499 1.98979 5.12805
upperneck 21.4833 2.10761 -4.88716
head 10.2009 0.678682 -2.30822
rclavicle -4.34841e-015 -1.75924e-014
rhumerus -37.9406 1.84351 -83.3591
rradius 68.2404
rwrist 14.8355
rhand -9.1481 6.85888
rfingers 7.12502
rthumb 16.8039 -22.434
lclavicle -4.34841e-015 -1.75924e-014
lhumerus -32.0463 -9.12841 95.0378
lradius 93.9251
lwrist -7.16792
lhand -22.6502 16.8484
lfingers 7.12502
lthumb 3.78086 46.7946
rfemur -5.77262 -1.38932 21.7731
rtibia 37.9504
rfoot -20.9407 -10.9833
rtoes -2.62719
lfemur -9.13273 -7.03308 -9.00104
ltibia 49.7034
lfoot -12.6904 -1.50324
ltoes -27.2952
2627
root -2.68025 17.2662 39.7717 174.4 -13.1961 -178.246
lowerback 14.2282 0.137689 1.25549
upperback 1.62054 0.245225 1.01173
thorax -6.26252 0.0148824 0.320774
lowerneck -19.4033 2.45791 5.08339
upperneck 21.6975 2.87812 -5.32254
head 10.3022 0.966825 -2.34992
rclavicle 1.95927e-014 -1.98785e-014
rhumerus -37.2562 2.56243 -83.5569
rradius 67.9167
rwrist 14.7539
rhand -9.07433 6.96611
rfingers 7.12502
rthumb 16.8749 -22.3207
lclavicle 1.95927e-014 -1.98785e-014
lhumerus -31.7628 -9.16975 95.9512
lradius 93.1407
lwrist -8.37936
lhand -22.0422 16.5498
lfingers 7.12502
lthumb 4.36803 46.4847
rfemur -5.97408 -1.50235 21.6369
rtibia 38.0606
rfoot -20.8371 -10.8545
rtoes -2.92695
lfemur -9.70348 -6.88391 -8.93914
ltibia 50.2369
lfoot -11.6898 -2.15713
ltoes -26.3812
2628
root -2.65827 17.2673 39.7741 174.387 -13.3021 -178.468
lowerback 14.383 0.0919636 1.33013
upperback 1.64513 0.198837 1.1149
thorax -6.32226 -0.0116877 0.397215
lowerneck -19.2215 2.97206 5.17829
upperneck 21.6705 3.69935 -5.84364
head 10.3216 1.28533 -2.43338
rclavicle -9.23106e-015 1.13307e-014
rhumerus -36.2765 3.39144 -83.7761
rradius 67.5828
rwrist 14.5876
rhand -8.94561 7.01839
rfingers 7.12502
rthumb 16.9988 -22.2578
lclavicle -9.23106e-015 1.13307e-014
lhumerus -31.5188 -9.28139 96.6816
lradius 92.5728
lwrist -9.60232
lhand -21.8154 16.378
lfingers 7.12502
lthumb 4.58701 46.3083
rfemur -6.02546 -1.56013 21.4857
rtibia 38.2423
rfoot -20.7703 -10.99
rtoes -3.25551
lfemur -10.0785 -6.87373 -8.92492
ltibia 50.6251
lfoot -10.9061 -3.05732
ltoes -24.6881
2629
root -2.63719 17.2575 39.7744 174.393 -13.4993 -178.798
lowerback 14.5038 0.028557 1.33826
upperback 1.67673 0.113203 1.10666
thorax -6.35563 -0.0557122 0.401124
lowerneck -19.0645 3.4538 5.3404
upperneck 21.7371 4.42753 -6.25773
head 10.3782 1.57764 -2.5046
rclavicle -1.11816e-014 -7.7526e-015
rhumerus -35.4282 4.12388 -84.0877
rradius 67.4333
rwrist 14.6404
rhand -9.06062 7.01712
rfingers 7.12502
rthumb 16.8881 -22.2686
lclavicle -1.11816e-014 -7.7526e-015
lhumerus -31.3989 -9.58939 97.2094
lradius 92.1585
lwrist -10.6166
lhand -21.5513 16.0157
lfingers 7.12502
lthumb 4.84202 45.9404
rfemur -6.08279 -1.4533 21.256
rtibia 38.5147
rfoot -20.857 -11.2543
rtoes -3.41897
lfemur -10.3555 -7.00972 -9.08805
ltibia 50.9075
lfoot -10.4809 -3.63461
ltoes -23.0482
2630
root -2.64019 17.2528 39.7538 174.509 -12.7939 -179.16
lowerback 14.222 0.219222 1.35173
upperback 1.70924 0.362405 1.09764
thorax -6.16421 0.0671273 0.334644
lowerneck -18.8544 3.85861 5.6283
upperneck 21.9175 5.03714 -6.7904
head 10.4698 1.80648 -2.66015
rclavicle 1.19519e-014 8.74653e-015
rhumerus -34.6995 4.8835 -84.3444
rradius 67.457
rwrist 14.862
rhand -8.84049 7.39782
rfingers 7.12502
rthumb 17.1 -21.8696
lclavicle 1.19519e-014 8.74653e-015
lhumerus -31.5251 -9.82092 97.7468
lradius 91.8348
lwrist -11.4085
lhand -21.6298 15.7917
lfingers 7.12502
lthumb 4.76621 45.7181
rfemur -6.25993 -0.846217 20.982
rtibia 38.8013
rfoot -20.9155 -11.2528
rtoes -4.74584
lfemur -10.2891 -6.50631 -9.34517
ltibia 51.0005
lfoot -10.7536 -4.0524
ltoes -22.0043
